# xmcd CD database file
#
# Track frame offsets:
#	150
#	27402
#	55331
#	76667
#	99099
#	128608
#
# Disc length: 1845 seconds
#
# Revision: 0
# Processed by: cddbd v1.5.1PL0 Copyright (c) Steve Scherf et al.
# Submitted via: CDex 1.51
#
DISCID=3a073306
DTITLE=Herbie Mann - When Lights as Low
DYEAR=1988
DGENRE=Jazz
TTITLE0=When Lights Are Low
TTITLE1=Little Niles
TTITLE2=Old Honkie Tonk Piano Blues
TTITLE3=Pretty Baby
TTITLE4=Beautiful Love
TTITLE5=Hip Scotch
EXTD=YEAR: 1988
EXTT0=
EXTT1=
EXTT2=
EXTT3=
EXTT4=
EXTT5=
PLAYORDER=
